<?xml version="1.0" encoding="utf-8"?>
<!-- Generator: Adobe Illustrator 25.0.0, SVG Export Plug-In . SVG Version: 6.00 Build 0)  -->
<svg version="1.1" id="Layer_1" xmlns="http://www.w3.org/2000/svg" xmlns:xlink="http://www.w3.org/1999/xlink" x="0px" y="0px"
	 viewBox="0 0 100 28" style="enable-background:new 0 0 100 28;" xml:space="preserve">
<style type="text/css">
	.st0{fill:#FFFFFF;}
</style>
<g>
	<path class="st0" d="M17.26,14.21h-2.69l-0.88,4.6h-2.91L13,7.35h2.91l-0.85,4.31h2.69l0.85-4.31h2.91l-2.23,11.46h-2.91
		L17.26,14.21z"/>
	<path class="st0" d="M23,10.62h2.69l-1.59,8.19h-2.69L23,10.62z M23.68,7.15h2.69L25.9,9.51h-2.69L23.68,7.15z"/>
	<path class="st0" d="M27.66,10.62h2.69l-0.2,1.02c0.67-0.83,1.46-1.21,2.28-1.21c0.34,0,0.66,0.05,0.87,0.16l-0.41,2.13
		c-0.2-0.08-0.54-0.13-0.88-0.13c-0.92,0-1.69,0.39-2.24,1.08l-1,5.14h-2.69L27.66,10.62z"/>
	<path class="st0" d="M37.58,16.09l2.7,0.16c-0.62,1.6-2.32,2.75-4.26,2.75c-2.21,0-3.45-1.52-3.06-3.54l0.29-1.51
		c0.39-2.01,2.23-3.54,4.44-3.54c2.14,0,3.45,1.51,3.09,3.41l-0.33,1.67h-4.81l-0.03,0.12c-0.15,0.77,0.21,1.23,0.83,1.23
		C36.92,16.84,37.35,16.61,37.58,16.09z M38.07,13.76c0.15-0.7-0.18-1.18-0.8-1.18s-1.15,0.47-1.29,1.18v0.07h2.1V13.76z"/>
	<path class="st0" d="M45.13,15.11l-0.7,3.7h-2.91l2.23-11.46h4.45c1.98,0,3.7,1.2,3.18,3.88c-0.51,2.69-2.72,3.88-4.7,3.88H45.13z
		 M46.9,12.55c0.75,0,1.38-0.39,1.55-1.33c0.2-0.93-0.29-1.33-1.05-1.33h-1.26l-0.51,2.65H46.9z"/>
	<path class="st0" d="M53.81,7.15h2.72l-1.67,8.58c-0.13,0.67,0.05,0.92,0.67,0.92h0.62l-0.41,2.16h-1.29
		c-2.05,0-2.75-0.82-2.34-2.87L53.81,7.15z"/>
	<path class="st0" d="M61.23,18.81l0.16-0.87C60.83,18.63,60.06,19,59.13,19c-1.44,0-2.39-0.95-2.1-2.46l0.03-0.15
		c0.29-1.47,1.56-2.55,4.11-2.55h1l0.07-0.28c0.13-0.7-0.2-1.05-0.8-1.05c-0.48,0-0.97,0.25-1.29,0.75L58,12.76
		c0.87-1.38,2.23-2.34,4.04-2.34c2.29,0,3.23,1.39,2.85,3.26l-0.98,5.13H61.23z M61.72,16.22l0.13-0.64h-1.16
		c-0.57,0-0.98,0.26-1.06,0.64l-0.02,0.1c-0.07,0.36,0.23,0.59,0.7,0.59C60.87,16.91,61.42,16.65,61.72,16.22z"/>
	<path class="st0" d="M67.87,18.25l-1.62-7.63h2.82l0.64,4.17l2.05-4.17h2.82l-4.83,9.4c-0.87,1.72-1.83,2.24-3.96,2.24h-0.79
		l0.43-2.16h0.56c0.7,0,1.05-0.2,1.39-0.85L67.87,18.25z"/>
	<path class="st0" d="M78.81,16.09l2.7,0.16c-0.62,1.6-2.33,2.75-4.26,2.75c-2.21,0-3.45-1.52-3.06-3.54l0.29-1.51
		c0.39-2.01,2.23-3.54,4.44-3.54c2.15,0,3.46,1.51,3.09,3.41l-0.33,1.67h-4.81l-0.03,0.12c-0.15,0.77,0.21,1.23,0.83,1.23
		C78.16,16.84,78.58,16.61,78.81,16.09z M79.3,13.76c0.15-0.7-0.18-1.18-0.8-1.18s-1.15,0.47-1.29,1.18v0.07h2.1V13.76z"/>
	<path class="st0" d="M84.17,10.62h2.69l-0.2,1.02c0.67-0.83,1.46-1.21,2.28-1.21c0.34,0,0.66,0.05,0.87,0.16l-0.41,2.13
		c-0.2-0.08-0.54-0.13-0.88-0.13c-0.92,0-1.69,0.39-2.24,1.08l-1,5.14h-2.69L84.17,10.62z"/>
</g>
<g>
</g>
<g>
</g>
<g>
</g>
<g>
</g>
<g>
</g>
<g>
</g>
</svg>
